<svg id="Capa_1" data-name="Capa 1" xmlns="http://www.w3.org/2000/svg" viewBox="0 0 787.031 241.316"><defs><style>.cls-1{fill:#e52d2f;}</style></defs><path class="cls-1" d="M267.48,459.586c7.04,0,9.908,3.653,9.908,9.91s-2.868,9.65-9.908,9.65H223.149V626.738c0,6.782-3.129,9.911-10.171,9.911h-2.347c-6.779,0-10.168-3.129-10.168-9.911V479.146H156.392c-7.04,0-9.908-3.393-9.908-9.65s2.868-9.91,9.908-9.91Z" transform="translate(-146.484 -416.53)"/><path class="cls-1" d="M369.7,459.586c29.989,0,59.195,11.735,59.195,51.371,0,27.7-18.986,44.9-44.828,47.2,16.827,91,108.356,82.359,132.432,80.856,2.054-.128,7.019.831,8.054,5.694a19.015,19.015,0,0,1,.258,5.071c-.723,5.07-5.21,6.634-8.64,6.726-45.442,1.214-127.28,7.967-153.875-96.445l-21.866-.337a6.2,6.2,0,0,0-6.195,6.194V627c0,6.782-3.128,9.65-10.432,9.65h-1.3c-7.04,0-10.168-2.868-10.168-9.65V469.757c0-6.779,3.128-9.911,10.168-9.911Zm-35.465,75.166a6.2,6.2,0,0,0,6.195,6.194h30.312c20.861,0,36.247-10.95,36.247-30.25,0-21.643-14.082-31.55-36.247-31.55H340.429a6.2,6.2,0,0,0-6.195,6.194Z" transform="translate(-146.484 -416.53)"/><path class="cls-1" d="M508.105,443.09a16.942,16.942,0,0,1-16.792,16.793,16.744,16.744,0,0,1-16.792-16.793A17,17,0,0,1,491.313,426C500.472,426,508.105,433.932,508.105,443.09Zm-15.876,43.047c7.936,0,11.6,3.665,11.6,11.3v118.3c0,7.94-3.666,11.6-11.6,11.6H490.4c-7.937,0-11.6-3.662-11.6-11.6v-118.3c0-7.631,3.666-11.3,11.6-11.3Z" transform="translate(-146.484 -416.53)"/><path class="cls-1" d="M673.648,592.066a20.4,20.4,0,0,1,8.471-4.93V427.52c0-7.328-3.662-10.99-11.6-10.99h-2.444c-8.243,0-11.6,3.662-11.6,10.99v69.61c-8.546-7.025-22.285-14.046-40.909-14.046-37.856,0-69.3,25.341-69.3,80.905,0,52.815,29,74.8,62.588,74.8,22.592,0,41.678-12.719,50.227-27.195,1.606-2.719,4.014-7.636,6.474-9.628A21.3,21.3,0,0,1,673.648,592.066Zm-17.174-27.161c0,26.56-10.38,53.121-42.131,53.121-21.676,0-43.046-12.821-43.046-54.343,0-40.606,18.623-58.31,43.962-58.31,18.623,0,31.75,7.021,41.215,16.789Z" transform="translate(-146.484 -416.53)"/><path class="cls-1" d="M762.109,443.09a16.943,16.943,0,0,1-16.792,16.793,16.745,16.745,0,0,1-16.793-16.793A17,17,0,0,1,745.317,426C754.475,426,762.109,433.932,762.109,443.09Zm-15.877,43.047c7.937,0,11.6,3.665,11.6,11.3v118.3c0,7.94-3.665,11.6-11.6,11.6H744.4c-7.937,0-11.6-3.662-11.6-11.6v-118.3c0-7.631,3.665-11.3,11.6-11.3Z" transform="translate(-146.484 -416.53)"/><path class="cls-1" d="M931.072,625.047s-55.2-91.417-55.135-91.5c-16.63-21.213-31.062-51.1-37.43-65.293-2.7-6.024-7.232-9.713-13.034-9.713,0,0-7.779-.862-10.516,6.209-1.862,4.812.9,9.4,2.853,12.4,13.505,20.748,16.872,29.614,41.626,68.405,2.792,4.375,42.023,82.543,42.023,82.543,3.665,5.19,7.634,8.549,13.739,8.549H927.1c3.968,0,6.412-2.137,6.412-5.5C933.516,629.321,932.906,627.49,931.072,625.047Z" transform="translate(-146.484 -416.53)"/><path class="cls-1" d="M898.97,463.977c-7.927,21.138-20.766,45.624-28.2,64.056-4.659,11.55-8.682,21.526-10.326,25.032-.782,1.669-1.622,3.494-2.522,5.451-13.342,28.979-41.1,76.86-93.72,80.433-50.407,3.446-79.565-10.283-82.082-66.99-.057-1.276-3.142-2.366-4.416-2.277l-7.638,4.446a9.2,9.2,0,0,0-8.5,10.253c7.053,57.8,39.49,73.466,93.439,73.466q4.947,0,10.131-.351c65.493-4.447,97.435-57.11,112.526-89.893.879-1.908,1.7-3.686,2.459-5.313,1.9-4.049,3.607-10.441,5.734-15.891,7.15-18.316,24-54.249,34.038-74.436a9.922,9.922,0,0,0-7.478-14.231C905.59,456.779,901.169,458.113,898.97,463.977Z" transform="translate(-146.484 -416.53)"/></svg>